Coordinates
version=1
nRows=17
nColumns=40
inDegrees=yes

Units are S.I. units (second, meters, Newtons, ...)
Angles are in degrees.

endheader
time	pelvis_tilt	pelvis_list	pelvis_rotation	pelvis_tx	pelvis_ty	pelvis_tz	hip_flexion_r	hip_adduction_r	hip_rotation_r	knee_angle_r	knee_angle_r_beta	ankle_angle_r	subtalar_angle_r	mtp_angle_r	hip_flexion_l	hip_adduction_l	hip_rotation_l	knee_angle_l	knee_angle_l_beta	ankle_angle_l	subtalar_angle_l	mtp_angle_l	lumbar_extension	lumbar_bending	lumbar_rotation	arm_flex_r	arm_add_r	arm_rot_r	elbow_flex_r	pro_sup_r	wrist_flex_r	wrist_dev_r	arm_flex_l	arm_add_l	arm_rot_l	elbow_flex_l	pro_sup_l	wrist_flex_l	wrist_dev_l
      1.29000000	      0.46276925	      2.04512692	     -1.99501142	      0.03086368	      0.95130417	     -1.39326475	     -4.66938663	     -2.90778646	    -17.94838472	    -16.96863828	     -0.29615861	     11.92455900	      3.46692192	    -13.69213834	     21.33036983	      2.87688037	     18.15915644	     -9.07191791	     -0.15833484	     -3.22676203	     -4.86018491	      8.09888047	     -6.12142340	     -4.42729056	      5.04120421	     11.74100632	    -12.98483731	    -12.30211342	     26.50720730	     89.95437384	      0.00000000	      0.00000000	     -4.49548128	      7.43211570	     -2.04388019	     18.81501288	     89.95437384	      0.00000000	      0.00000000
      1.30000000	      0.38052983	      2.07511848	     -2.10020971	      0.03917696	      0.95004050	     -1.39397932	     -5.03392519	     -3.08002515	    -18.03367894	    -17.21350889	     -0.30043241	     12.22549239	      3.78906205	    -14.06751156	     21.51675106	      2.90388602	     18.51631404	     -8.17934267	     -0.14275646	     -3.54953391	     -5.67927439	      7.82176862	     -6.00968072	     -4.52528919	      5.04148642	     11.90417194	    -12.88541231	    -11.58418833	     26.72275531	     89.95437384	      0.00000000	      0.00000000	     -4.25913084	      7.46237610	     -1.35148033	     18.93787383	     89.95437384	      0.00000000	      0.00000000
      1.31000000	      0.20294023	      1.99100923	     -2.10585520	      0.04752684	      0.94860819	     -1.39489578	     -5.36610865	     -3.08546264	    -18.12723713	    -17.30893918	     -0.30209798	     12.32870975	      3.73767960	    -14.03360427	     21.95715278	      3.03709022	     18.73136534	     -7.82419755	     -0.13655801	     -3.38161592	     -5.67833336	      7.70855523	     -5.76523907	     -4.49417960	      5.08514322	     11.99804158	    -12.72251433	    -11.45639307	     26.87324068	     89.95437384	      0.00000000	      0.00000000	     -4.01082753	      7.56552907	     -1.29533258	     19.03356861	     89.95437384	      0.00000000	      0.00000000
      1.32000000	      0.05486153	      1.96085662	     -2.13666649	      0.05568182	      0.94723206	     -1.39563842	     -5.64154442	     -3.14300217	    -18.08411511	    -17.56557324	     -0.30657709	     12.27397562	      3.64174140	    -13.88567845	     22.42852743	      3.16178315	     18.75163128	     -7.83689881	     -0.13677969	     -3.29131451	     -5.55809524	      7.58092420	     -5.61905518	     -4.57107947	      5.11326761	     12.04944237	    -12.49170863	    -11.30391195	     27.14820061	     89.95437384	      0.00000000	      0.00000000	     -3.77933376	      7.75720712	     -1.24010934	     19.26647788	     89.95437384	      0.00000000	      0.00000000
      1.33000000	      0.44881425	      2.18586299	     -2.43750087	      0.06512601	      0.94676540	     -1.39694906	     -6.72164201	     -3.65785556	    -18.24767850	    -17.52474944	     -0.30586458	     12.68551014	      4.34219366	    -14.38160029	     21.85880243	      2.99439160	     19.64276178	     -7.39941498	     -0.12914415	     -3.50035922	     -5.98574048	      7.21503618	     -5.90765405	     -4.84042558	      5.26926649	     12.01005115	    -12.44268365	    -10.65110621	     27.50840677	     89.95437384	      0.00000000	      0.00000000	     -3.53586928	      7.68892548	     -0.45030926	     19.15400091	     89.95437384	      0.00000000	      0.00000000
      1.34000000	      0.31851268	      2.17188521	     -2.46783626	      0.07402499	      0.94542480	     -1.39822299	     -7.13715336	     -3.78743198	    -18.30507705	    -17.64369751	     -0.30794061	     12.76293212	      4.27546371	    -14.29489160	     22.18075492	      3.07323384	     19.70178728	     -7.69512803	     -0.13430532	     -3.47200204	     -5.70522773	      7.06570529	     -5.68978114	     -4.87743442	      5.35344451	     11.96894519	    -12.28816530	    -10.46244738	     27.56366726	     89.95437384	      0.00000000	      0.00000000	     -3.32428284	      7.83859535	     -0.39221730	     19.20715091	     89.95437384	      0.00000000	      0.00000000
      1.35000000	      0.45734192	      2.23929518	     -2.53841690	      0.08321363	      0.94454224	     -1.39967939	     -7.94613891	     -4.03551328	    -18.36997567	    -17.58520659	     -0.30691975	     12.93212293	      4.54945894	    -14.32952789	     22.24203617	      3.09979728	     19.79588316	     -8.37753329	     -0.14621554	     -3.33149023	     -5.13094022	      6.78089846	     -5.73713625	     -5.01088875	      5.40392957	     11.90593297	    -12.21861015	     -9.84625197	     27.67647522	     89.95437384	      0.00000000	      0.00000000	     -3.05684157	      7.94827459	     -0.19565400	     19.10452875	     89.95437384	      0.00000000	      0.00000000
      1.36000000	      0.29154675	      2.22289354	     -2.62241057	      0.09223120	      0.94313894	     -1.40101561	     -8.19626035	     -4.20680430	    -18.21670379	    -17.96540816	     -0.31355552	     12.71131044	      4.41792540	    -14.08057243	     22.47535079	      3.20426766	     19.51016322	     -8.84584398	     -0.15438910	     -3.33595020	     -4.88656720	      6.64329401	     -5.47681463	     -5.06336597	      5.48887026	     11.72826970	    -12.01645763	     -9.73165212	     27.91959879	     89.95437384	      0.00000000	      0.00000000	     -3.01877749	      8.17878842	     -0.10993741	     19.39166968	     89.95437384	      0.00000000	      0.00000000
      1.37000000	      0.34180790	      2.27652623	     -2.73251360	      0.10199557	      0.94215781	     -1.40283610	     -9.00448239	     -4.47946722	    -18.51358629	    -17.73317616	     -0.30950231	     12.96247158	      4.50301385	    -14.05590637	     22.44152092	      3.20487029	     19.54267610	     -9.52572390	     -0.16625525	     -3.12087264	     -4.21329065	      6.47156740	     -5.35036708	     -5.14811717	      5.75339459	     11.53661516	    -11.98802255	     -9.43420849	     27.82570612	     89.95437384	      0.00000000	      0.00000000	     -2.77033916	      8.27262148	      0.08091910	     19.20365823	     89.95437384	      0.00000000	      0.00000000
      1.38000000	      0.67456964	      2.38970375	     -2.65197042	      0.11181404	      0.94159071	     -1.40494549	    -10.15276454	     -4.81167002	    -18.77942294	    -17.53417100	     -0.30602902	     12.86623256	      5.03248588	    -14.03038571	     22.20434833	      3.07327780	     19.43418192	    -10.59401826	     -0.18490050	     -2.57459862	     -3.19101406	      6.15404756	     -5.59569255	     -5.31434685	      5.66597893	     11.35555645	    -11.88219812	     -9.06500596	     27.91072119	     89.95437384	      0.00000000	      0.00000000	     -2.48244797	      8.38977534	      0.48860802	     18.93020420	     89.95437384	      0.00000000	      0.00000000
      1.39000000	      0.51220820	      2.36799994	     -2.72255594	      0.12148451	      0.94017189	     -1.40688350	    -10.43767068	     -5.02438646	    -18.62506797	    -17.94354289	     -0.31317390	     12.58820671	      4.91908314	    -13.77576067	     22.22899016	      3.10480240	     19.05428586	    -11.12463784	     -0.19416156	     -2.57731027	     -2.97127435	      6.01904769	     -5.25155903	     -5.32034893	      5.77172964	     11.02159595	    -11.75433793	     -8.95217842	     28.06927927	     89.95437384	      0.00000000	      0.00000000	     -2.56080758	      8.59138936	      0.61203120	     19.23231912	     89.95437384	      0.00000000	      0.00000000
      1.40000000	      1.30920728	      2.86624542	     -2.47634768	      0.13239109	      0.94036333	     -1.41030518	    -12.31550237	     -6.06927337	    -20.53828427	    -17.51135087	     -0.30563073	     12.21465133	      7.62337079	    -14.65129924	     20.92867738	      2.07945715	     17.74815521	    -11.30855481	     -0.19737152	     -2.01350478	     -0.49713229	      5.36789998	     -5.94459436	     -5.85603683	      5.29249916	     10.90560335	    -11.80669073	     -7.78645270	     28.00808912	     89.95437384	      0.00000000	      0.00000000	     -2.41274702	      8.51711028	      2.41383882	     18.97835048	     89.95437384	      0.00000000	      0.00000000
      1.41000000	      1.10514523	      2.84357332	     -2.49487556	      0.14236873	      0.93886975	     -1.41259119	    -12.55008473	     -6.28507443	    -20.31132932	    -17.97315900	     -0.31369080	     11.96354107	      7.36417343	    -14.37685767	     20.91162665	      2.07494333	     17.42262449	    -11.88432307	     -0.20742057	     -2.08111075	     -0.39382547	      5.25598509	     -5.53394221	     -5.84396323	      5.44254189	     10.47417961	    -11.72398966	     -7.71300220	     28.08124110	     89.95437384	      0.00000000	      0.00000000	     -2.49987315	      8.71275814	      2.49242696	     19.26840470	     89.95437384	      0.00000000	      0.00000000
      1.42000000	      1.60018522	      3.55007760	     -2.46393352	      0.15346165	      0.93852639	     -1.41599306	    -13.86496833	     -7.64093696	    -21.95304272	    -18.04131654	     -0.31488038	     11.77106056	      9.57880145	    -15.64897817	     20.08058404	      1.07928010	     17.82331321	    -12.41934943	     -0.21675854	     -2.91656026	      1.32084824	      4.02671648	     -5.78670048	     -6.61512951	      5.36913987	     10.23287661	    -11.58348072	     -7.73753926	     27.77980955	     89.95437384	      0.00000000	      0.00000000	     -2.37590646	      8.79537796	      3.33011306	     19.05306006	     89.95437384	      0.00000000	      0.00000000
      1.43000000	      1.65027345	      3.66419673	     -2.34536123	      0.16393919	      0.93762620	     -1.41875785	    -14.60983368	     -7.99144780	    -22.27786377	    -18.10717838	     -0.31602988	     11.53541990	      9.36713216	    -15.51152620	     19.97880916	      0.98083922	     18.79546335	    -13.20170056	     -0.23041314	     -4.58701536	      2.10848665	      4.25680276	     -5.62810853	     -6.75913078	      5.38806551	      9.89567429	    -11.51257393	     -7.60688464	     27.50071931	     89.95437384	      0.00000000	      0.00000000	     -2.32456626	      8.97651840	      3.47892957	     19.02380086	     89.95437384	      0.00000000	      0.00000000
      1.44000000	      1.86679859	      4.01999168	     -2.31886826	      0.17432662	      0.93723565	     -1.42162807	    -15.40437752	     -8.70639889	    -22.51161939	    -18.39137901	     -0.32099012	     10.86311524	      9.42998967	    -15.35163057	     19.55597653	      0.60852840	     19.43302488	    -13.61597720	     -0.23764363	     -6.26790256	      2.22465399	      4.38328952	     -5.65464912	     -7.18307316	      5.36846595	      9.66488620	    -11.32365853	     -7.68017374	     27.12882244	     89.95437384	      0.00000000	      0.00000000	     -2.23663774	      9.14945884	      3.87485057	     18.94176700	     89.95437384	      0.00000000	      0.00000000
      1.45000000	      2.42769517	      4.88237386	     -2.46041043	      0.18530525	      0.93766595	     -1.42492956	    -16.50652220	    -10.22702853	    -23.32334802	    -18.87807949	     -0.32948464	      9.99279902	     10.46579669	    -15.48631248	     18.42864875	     -0.37140113	     20.15063168	    -13.45007024	     -0.23474801	     -7.46174495	      1.46808116	      3.73470556	     -6.03724026	     -8.15722496	      5.35110217	      9.49485024	    -11.04713536	     -8.07068524	     26.68688080	     89.95437384	      0.00000000	      0.00000000	     -2.25075123	      9.22704810	      5.13757660	     18.98666164	     89.95437384	      0.00000000	      0.00000000
